<svg xmlns="http://www.w3.org/2000/svg" width="1240" height="620" viewBox="0 0 1240 620" role="img" aria-label="P95 Latency by Concurrency">
<defs>
<style>
.title { font: 700 26px Arial, sans-serif; fill: #14213d; }
.subtitle { font: 400 14px Arial, sans-serif; fill: #5b6472; }
.axis { font: 12px Arial, sans-serif; fill: #334155; }
.label { font: 600 13px Arial, sans-serif; fill: #1f2937; }
.value { font: 600 12px Arial, sans-serif; fill: #0f172a; }
.legend { font: 600 13px Arial, sans-serif; fill: #1f2937; }
.grid { stroke: #d8dee9; stroke-width: 1; }
.axis-line { stroke: #94a3b8; stroke-width: 1.2; }
</style>
</defs>
<rect width="1240" height="620" fill="#f8fafc" />
<text x="88" y="36" class="title">P95 Latency by Concurrency</text>
<text x="88" y="58" class="subtitle">Lower is better. Tail latency highlights how the system behaves under heavier parallel pressure.</text>
<text x="1180" y="36" text-anchor="end" class="subtitle">metric: latency_ms.p95</text>
<line x1="88" y1="524.00" x2="980" y2="524.00" class="grid" />
<text x="76" y="528.00" text-anchor="end" class="axis">0</text>
<line x1="88" y1="436.00" x2="980" y2="436.00" class="grid" />
<text x="76" y="440.00" text-anchor="end" class="axis">281</text>
<line x1="88" y1="348.00" x2="980" y2="348.00" class="grid" />
<text x="76" y="352.00" text-anchor="end" class="axis">563</text>
<line x1="88" y1="260.00" x2="980" y2="260.00" class="grid" />
<text x="76" y="264.00" text-anchor="end" class="axis">844</text>
<line x1="88" y1="172.00" x2="980" y2="172.00" class="grid" />
<text x="76" y="176.00" text-anchor="end" class="axis">1126</text>
<line x1="88" y1="84.00" x2="980" y2="84.00" class="grid" />
<text x="76" y="88.00" text-anchor="end" class="axis">1407</text>
<line x1="88" y1="84" x2="88" y2="524" class="axis-line" />
<line x1="88" y1="524" x2="980" y2="524" class="axis-line" />
<text x="20" y="304.00" transform="rotate(-90 20 304.00)" class="label">Latency (ms)</text>
<rect x="1004" y="82" width="14" height="14" rx="3" fill="#1d4ed8" />
<text x="1026" y="93" class="legend">Single / Read</text>
<rect x="1004" y="106" width="14" height="14" rx="3" fill="#60a5fa" />
<text x="1026" y="117" class="legend">Multi / Read</text>
<rect x="1004" y="130" width="14" height="14" rx="3" fill="#c2410c" />
<text x="1026" y="141" class="legend">Single / Shorten</text>
<rect x="1004" y="154" width="14" height="14" rx="3" fill="#fdba74" />
<text x="1026" y="165" class="legend">Multi / Shorten</text>
<rect x="120.71" y="431.95" width="51.98" height="92.05" rx="10" fill="#1d4ed8" />
<text x="146.70" y="423.95" text-anchor="middle" class="value">294.424</text>
<rect x="180.69" y="421.51" width="51.98" height="102.49" rx="10" fill="#60a5fa" />
<text x="206.68" y="413.51" text-anchor="middle" class="value">327.816</text>
<rect x="240.67" y="426.40" width="51.98" height="97.60" rx="10" fill="#c2410c" />
<text x="266.66" y="418.40" text-anchor="middle" class="value">312.175</text>
<rect x="300.65" y="429.83" width="51.98" height="94.17" rx="10" fill="#fdba74" />
<text x="326.64" y="421.83" text-anchor="middle" class="value">301.179</text>
<text x="236.67" y="588" text-anchor="middle" class="label">C=4</text>
<rect x="418.04" y="332.55" width="51.98" height="191.45" rx="10" fill="#1d4ed8" />
<text x="444.03" y="324.55" text-anchor="middle" class="value">612.335</text>
<rect x="478.02" y="429.62" width="51.98" height="94.38" rx="10" fill="#60a5fa" />
<text x="504.01" y="421.62" text-anchor="middle" class="value">301.855</text>
<rect x="538.00" y="420.48" width="51.98" height="103.52" rx="10" fill="#c2410c" />
<text x="563.99" y="412.48" text-anchor="middle" class="value">331.109</text>
<rect x="597.98" y="420.78" width="51.98" height="103.22" rx="10" fill="#fdba74" />
<text x="623.97" y="412.78" text-anchor="middle" class="value">330.148</text>
<text x="534.00" y="588" text-anchor="middle" class="label">C=8</text>
<rect x="715.37" y="141.39" width="51.98" height="382.61" rx="10" fill="#1d4ed8" />
<text x="741.36" y="133.39" text-anchor="middle" class="value">1223.740</text>
<rect x="775.35" y="321.54" width="51.98" height="202.46" rx="10" fill="#60a5fa" />
<text x="801.34" y="313.54" text-anchor="middle" class="value">647.563</text>
<rect x="835.33" y="268.10" width="51.98" height="255.90" rx="10" fill="#c2410c" />
<text x="861.32" y="260.10" text-anchor="middle" class="value">818.459</text>
<rect x="895.31" y="368.43" width="51.98" height="155.57" rx="10" fill="#fdba74" />
<text x="921.30" y="360.43" text-anchor="middle" class="value">497.574</text>
<text x="831.33" y="588" text-anchor="middle" class="label">C=16</text>
</svg>