<svg xmlns="http://www.w3.org/2000/svg" width="1240" height="620" viewBox="0 0 1240 620" role="img" aria-label="Throughput by Concurrency">
<defs>
<style>
.title { font: 700 26px Arial, sans-serif; fill: #14213d; }
.subtitle { font: 400 14px Arial, sans-serif; fill: #5b6472; }
.axis { font: 12px Arial, sans-serif; fill: #334155; }
.label { font: 600 13px Arial, sans-serif; fill: #1f2937; }
.value { font: 600 12px Arial, sans-serif; fill: #0f172a; }
.legend { font: 600 13px Arial, sans-serif; fill: #1f2937; }
.grid { stroke: #d8dee9; stroke-width: 1; }
.axis-line { stroke: #94a3b8; stroke-width: 1.2; }
</style>
</defs>
<rect width="1240" height="620" fill="#f8fafc" />
<text x="88" y="36" class="title">Throughput by Concurrency</text>
<text x="88" y="58" class="subtitle">Higher is better. Each group uses the same workload mix and request count while concurrency changes.</text>
<text x="1180" y="36" text-anchor="end" class="subtitle">metric: throughput_rps</text>
<line x1="88" y1="524.00" x2="980" y2="524.00" class="grid" />
<text x="76" y="528.00" text-anchor="end" class="axis">0</text>
<line x1="88" y1="436.00" x2="980" y2="436.00" class="grid" />
<text x="76" y="440.00" text-anchor="end" class="axis">11</text>
<line x1="88" y1="348.00" x2="980" y2="348.00" class="grid" />
<text x="76" y="352.00" text-anchor="end" class="axis">23</text>
<line x1="88" y1="260.00" x2="980" y2="260.00" class="grid" />
<text x="76" y="264.00" text-anchor="end" class="axis">34</text>
<line x1="88" y1="172.00" x2="980" y2="172.00" class="grid" />
<text x="76" y="176.00" text-anchor="end" class="axis">46</text>
<line x1="88" y1="84.00" x2="980" y2="84.00" class="grid" />
<text x="76" y="88.00" text-anchor="end" class="axis">57</text>
<line x1="88" y1="84" x2="88" y2="524" class="axis-line" />
<line x1="88" y1="524" x2="980" y2="524" class="axis-line" />
<text x="20" y="304.00" transform="rotate(-90 20 304.00)" class="label">Requests per second</text>
<rect x="1004" y="82" width="14" height="14" rx="3" fill="#1d4ed8" />
<text x="1026" y="93" class="legend">Single / Read</text>
<rect x="1004" y="106" width="14" height="14" rx="3" fill="#60a5fa" />
<text x="1026" y="117" class="legend">Multi / Read</text>
<rect x="1004" y="130" width="14" height="14" rx="3" fill="#c2410c" />
<text x="1026" y="141" class="legend">Single / Shorten</text>
<rect x="1004" y="154" width="14" height="14" rx="3" fill="#fdba74" />
<text x="1026" y="165" class="legend">Multi / Shorten</text>
<rect x="120.71" y="342.34" width="51.98" height="181.66" rx="10" fill="#1d4ed8" />
<text x="146.70" y="334.34" text-anchor="middle" class="value">23.697</text>
<rect x="180.69" y="384.68" width="51.98" height="139.32" rx="10" fill="#60a5fa" />
<text x="206.68" y="376.68" text-anchor="middle" class="value">18.174</text>
<rect x="240.67" y="347.47" width="51.98" height="176.53" rx="10" fill="#c2410c" />
<text x="266.66" y="339.47" text-anchor="middle" class="value">23.028</text>
<rect x="300.65" y="334.01" width="51.98" height="189.99" rx="10" fill="#fdba74" />
<text x="326.64" y="326.01" text-anchor="middle" class="value">24.783</text>
<text x="236.67" y="588" text-anchor="middle" class="label">C=4</text>
<rect x="418.04" y="341.64" width="51.98" height="182.36" rx="10" fill="#1d4ed8" />
<text x="444.03" y="333.64" text-anchor="middle" class="value">23.788</text>
<rect x="478.02" y="173.77" width="51.98" height="350.23" rx="10" fill="#60a5fa" />
<text x="504.01" y="165.77" text-anchor="middle" class="value">45.686</text>
<rect x="538.00" y="244.07" width="51.98" height="279.93" rx="10" fill="#c2410c" />
<text x="563.99" y="236.07" text-anchor="middle" class="value">36.516</text>
<rect x="597.98" y="222.92" width="51.98" height="301.08" rx="10" fill="#fdba74" />
<text x="623.97" y="214.92" text-anchor="middle" class="value">39.275</text>
<text x="534.00" y="588" text-anchor="middle" class="label">C=8</text>
<rect x="715.37" y="348.89" width="51.98" height="175.11" rx="10" fill="#1d4ed8" />
<text x="741.36" y="340.89" text-anchor="middle" class="value">22.843</text>
<rect x="775.35" y="203.48" width="51.98" height="320.52" rx="10" fill="#60a5fa" />
<text x="801.34" y="195.48" text-anchor="middle" class="value">41.811</text>
<rect x="835.33" y="287.65" width="51.98" height="236.35" rx="10" fill="#c2410c" />
<text x="861.32" y="279.65" text-anchor="middle" class="value">30.831</text>
<rect x="895.31" y="141.39" width="51.98" height="382.61" rx="10" fill="#fdba74" />
<text x="921.30" y="133.39" text-anchor="middle" class="value">49.910</text>
<text x="831.33" y="588" text-anchor="middle" class="label">C=16</text>
</svg>